<svg width="781" height="158" viewBox="0 0 781 158" fill="none" xmlns="http://www.w3.org/2000/svg">
<path d="M151.151 9V115.25L104.615 158H0V52.4734L44.2116 9H151.151Z" fill="#DAFF00"/>
<path d="M98.3745 39.9661H120.929V62.125L98.3745 84.0427H76.1056V62.0044L98.3745 39.9661Z" fill="#0B0D01"/>
<path d="M98.3745 84.0029H120.929V106.242L98.3745 128.2H76.1056V106.081L98.3745 84.0029Z" fill="#0B0D01"/>
<path d="M53.5506 84.0029H76.105V106.162L53.5506 128.039H31.2817V106.001L53.5506 84.0029Z" fill="#0B0D01"/>
<path d="M53.5506 39.8058H76.105V62.0452L53.5506 84.0031H31.2817V61.8844L53.5506 39.7656V39.8058Z" fill="#0B0D01"/>
<path d="M199.276 122.629V108.296H222.283C226.473 108.296 229.658 107.165 231.837 104.902C234.017 102.555 235.106 99.3702 235.106 95.3472C235.106 91.3241 234.017 88.223 231.837 86.0438C229.658 83.7808 226.473 82.6493 222.283 82.6493H199.276V71.7116H221.025C227.144 71.7116 232.592 72.466 237.369 73.9746C242.23 75.3994 246.002 77.83 248.684 81.2664C251.45 84.7028 252.833 89.3126 252.833 95.0957V96.8558C252.833 102.304 251.617 106.955 249.187 110.811C246.84 114.582 243.278 117.516 238.501 119.611C233.807 121.623 227.982 122.629 221.025 122.629H199.276ZM184.315 122.629V29.5951H201.79V122.629H184.315ZM199.276 79.7578V68.82H218.888C223.163 68.82 226.306 67.6886 228.317 65.4256C230.329 63.1626 231.335 60.1453 231.335 56.3737C231.335 52.602 230.329 49.5847 228.317 47.3218C226.306 45.0588 223.163 43.9273 218.888 43.9273H199.276V29.5951H217.254C227.647 29.5951 235.525 31.7743 240.889 36.1326C246.337 40.4909 249.061 46.7351 249.061 54.865V56.6251C249.061 62.3245 247.678 66.8923 244.912 70.3287C242.23 73.6813 238.501 76.1119 233.723 77.6205C228.946 79.0453 223.456 79.7578 217.254 79.7578H199.276ZM299.173 124.389C293.138 124.389 287.816 123.425 283.206 121.497C278.596 119.569 274.699 116.971 271.514 113.702C268.329 110.35 265.899 106.578 264.222 102.388C262.63 98.1968 261.834 93.8385 261.834 89.3126V86.6724C261.834 81.9788 262.672 77.5367 264.348 73.346C266.108 69.0715 268.581 65.2999 271.766 62.0311C275.034 58.6786 278.974 56.0803 283.583 54.2364C288.193 52.3087 293.39 51.3448 299.173 51.3448C304.956 51.3448 310.152 52.3087 314.762 54.2364C319.372 56.0803 323.269 58.6786 326.454 62.0311C329.723 65.2999 332.195 69.0715 333.872 73.346C335.548 77.5367 336.386 81.9788 336.386 86.6724V89.3126C336.386 93.8385 335.548 98.1968 333.872 102.388C332.279 106.578 329.891 110.35 326.706 113.702C323.521 116.971 319.623 119.569 315.014 121.497C310.404 123.425 305.124 124.389 299.173 124.389ZM299.173 109.428C303.447 109.428 307.051 108.506 309.985 106.662C312.918 104.734 315.139 102.178 316.648 98.9931C318.157 95.7243 318.911 92.0365 318.911 87.9296C318.911 83.7389 318.115 80.0511 316.522 76.8662C315.014 73.5974 312.751 71.0411 309.733 69.1972C306.8 67.2695 303.28 66.3056 299.173 66.3056C295.066 66.3056 291.504 67.2695 288.486 69.1972C285.553 71.0411 283.29 73.5974 281.698 76.8662C280.105 80.0511 279.309 83.7389 279.309 87.9296C279.309 92.0365 280.063 95.7243 281.572 98.9931C283.164 102.178 285.427 104.734 288.361 106.662C291.294 108.506 294.898 109.428 299.173 109.428ZM339.783 122L362.035 85.5409L361.658 88.4325L340.663 53.7335H359.646L373.35 77.7462H375.236L388.185 53.7335H406.038L386.174 88.3068L386.551 85.7924L410.061 122H391.077L374.859 96.2272H372.973L357.635 122H339.783ZM418.85 147.144V53.7335H432.68V83.1522L430.542 83.0265C430.878 76.07 432.302 70.2449 434.817 65.5513C437.415 60.8577 440.851 57.3794 445.126 55.1165C449.4 52.7697 454.178 51.5963 459.458 51.5963C464.319 51.5963 468.678 52.4763 472.533 54.2364C476.472 55.9965 479.825 58.469 482.591 61.654C485.44 64.8389 487.62 68.5686 489.128 72.8431C490.637 77.0338 491.391 81.5598 491.391 86.421V89.0611C491.391 94.0061 490.637 98.6159 489.128 102.89C487.703 107.081 485.566 110.811 482.716 114.08C479.951 117.265 476.598 119.779 472.659 121.623C468.72 123.383 464.319 124.263 459.458 124.263C454.345 124.263 449.652 123.215 445.377 121.12C441.187 118.941 437.792 115.63 435.194 111.188C432.596 106.662 431.129 100.837 430.794 93.7128L436.325 102.136V147.144H418.85ZM455.058 109.554C458.829 109.554 462.098 108.632 464.864 106.788C467.714 104.944 469.935 102.388 471.527 99.1188C473.12 95.7662 473.916 91.9946 473.916 87.8039C473.916 83.4456 473.12 79.674 471.527 76.489C469.935 73.3041 467.714 70.8316 464.864 69.0715C462.098 67.2276 458.829 66.3056 455.058 66.3056C451.621 66.3056 448.437 67.06 445.503 68.5686C442.653 70.0773 440.307 72.2983 438.463 75.2318C436.703 78.1653 435.823 81.6855 435.823 85.7924V90.8212C435.823 94.7605 436.745 98.113 438.588 100.879C440.432 103.645 442.821 105.782 445.755 107.291C448.688 108.799 451.789 109.554 455.058 109.554ZM507.511 122V53.7335H524.986V122H507.511ZM497.956 66.8085V53.7335H524.986V66.8085H497.956ZM513.923 45.5617C510.486 45.5617 507.93 44.6816 506.254 42.9215C504.661 41.0776 503.865 38.8146 503.865 36.1326C503.865 33.2829 504.661 30.978 506.254 29.2179C507.93 27.4579 510.486 26.5778 513.923 26.5778C517.359 26.5778 519.874 27.4579 521.466 29.2179C523.058 30.978 523.855 33.2829 523.855 36.1326C523.855 38.8146 523.058 41.0776 521.466 42.9215C519.874 44.6816 517.359 45.5617 513.923 45.5617ZM543.492 122V30.2237H560.967V122H543.492ZM534.943 43.2987V30.2237H560.967V43.2987H534.943ZM611.216 124.389C605.181 124.389 599.859 123.425 595.249 121.497C590.64 119.569 586.742 116.971 583.557 113.702C580.372 110.35 577.942 106.578 576.266 102.388C574.673 98.1968 573.877 93.8385 573.877 89.3126V86.6724C573.877 81.9788 574.715 77.5367 576.391 73.346C578.151 69.0715 580.624 65.2999 583.809 62.0311C587.078 58.6786 591.017 56.0803 595.627 54.2364C600.236 52.3087 605.433 51.3448 611.216 51.3448C616.999 51.3448 622.196 52.3087 626.805 54.2364C631.415 56.0803 635.313 58.6786 638.497 62.0311C641.766 65.2999 644.239 69.0715 645.915 73.346C647.591 77.5367 648.429 81.9788 648.429 86.6724V89.3126C648.429 93.8385 647.591 98.1968 645.915 102.388C644.323 106.578 641.934 110.35 638.749 113.702C635.564 116.971 631.667 119.569 627.057 121.497C622.447 123.425 617.167 124.389 611.216 124.389ZM611.216 109.428C615.491 109.428 619.095 108.506 622.028 106.662C624.962 104.734 627.183 102.178 628.691 98.9931C630.2 95.7243 630.954 92.0365 630.954 87.9296C630.954 83.7389 630.158 80.0511 628.566 76.8662C627.057 73.5974 624.794 71.0411 621.777 69.1972C618.843 67.2695 615.323 66.3056 611.216 66.3056C607.109 66.3056 603.547 67.2695 600.53 69.1972C597.596 71.0411 595.333 73.5974 593.741 76.8662C592.148 80.0511 591.352 83.7389 591.352 87.9296C591.352 92.0365 592.106 95.7243 593.615 98.9931C595.208 102.178 597.471 104.734 600.404 106.662C603.338 108.506 606.942 109.428 611.216 109.428ZM690.887 122.88C684.601 122.88 679.404 122.084 675.297 120.491C671.274 118.815 668.257 116.049 666.245 112.194C664.234 108.255 663.228 102.974 663.228 96.3529L663.354 34.4982H679.698L679.572 97.4844C679.572 100.837 680.452 103.435 682.212 105.279C684.056 107.039 686.654 107.919 690.007 107.919H700.693V122.88H690.887ZM652.416 66.5571V53.7335H700.693V66.5571H652.416ZM743.028 124.389C737.161 124.389 732.006 123.383 727.564 121.371C723.206 119.36 719.56 116.678 716.626 113.325C713.776 109.889 711.597 106.075 710.089 101.885C708.664 97.694 707.951 93.4194 707.951 89.0611V86.6724C707.951 82.1465 708.664 77.7881 710.089 73.5974C711.597 69.3229 713.776 65.5513 716.626 62.2826C719.56 58.93 723.164 56.2899 727.438 54.3621C731.713 52.3506 736.658 51.3448 742.273 51.3448C749.649 51.3448 755.809 52.9792 760.754 56.248C765.783 59.4329 769.555 63.6655 772.069 68.9458C774.584 74.1422 775.841 79.7578 775.841 85.7924V92.0784H715.369V81.3921H764.903L759.497 86.6724C759.497 82.3141 758.868 78.5844 757.611 75.4833C756.354 72.3821 754.426 69.9934 751.828 68.3172C749.314 66.6409 746.129 65.8027 742.273 65.8027C738.418 65.8027 735.149 66.6828 732.467 68.4429C729.785 70.203 727.732 72.7593 726.307 76.1119C724.966 79.3806 724.295 83.3199 724.295 87.9296C724.295 92.2041 724.966 96.0177 726.307 99.3702C727.648 102.639 729.701 105.237 732.467 107.165C735.233 109.009 738.753 109.931 743.028 109.931C747.302 109.931 750.78 109.093 753.462 107.416C756.144 105.656 757.863 103.519 758.617 101.005H774.709C773.703 105.698 771.776 109.805 768.926 113.325C766.076 116.845 762.43 119.569 757.988 121.497C753.63 123.425 748.643 124.389 743.028 124.389Z" fill="white"/>
</svg>

