<svg width="669" height="173" viewBox="0 0 669 173" fill="none" xmlns="http://www.w3.org/2000/svg">
<path d="M151.151 24V130.25L104.615 173H0V67.4734L44.2116 24H151.151Z" fill="#161906"/>
<path d="M98.3745 54.9661H120.929V77.125L98.3745 99.0427H76.1056V77.0044L98.3745 54.9661Z" fill="#DAFF00"/>
<path d="M98.3745 99.0029H120.929V121.242L98.3745 143.2H76.1056V121.081L98.3745 99.0029Z" fill="#DAFF00"/>
<path d="M53.5506 99.0029H76.105V121.162L53.5506 143.039H31.2817V121.001L53.5506 99.0029Z" fill="#DAFF00"/>
<path d="M53.5506 54.8058H76.105V77.0452L53.5506 99.0031H31.2817V76.8844L53.5506 54.7656V54.8058Z" fill="#DAFF00"/>
<path d="M196.433 99.51V87.882H215.099C218.499 87.882 221.083 86.964 222.851 85.128C224.619 83.224 225.503 80.64 225.503 77.376C225.503 74.112 224.619 71.596 222.851 69.828C221.083 67.992 218.499 67.074 215.099 67.074H196.433V58.2H214.079C219.043 58.2 223.463 58.812 227.339 60.036C231.283 61.192 234.343 63.164 236.519 65.952C238.763 68.74 239.885 72.48 239.885 77.172V78.6C239.885 83.02 238.899 86.794 236.927 89.922C235.023 92.982 232.133 95.362 228.257 97.062C224.449 98.694 219.723 99.51 214.079 99.51H196.433ZM184.295 99.51V24.03H198.473V99.51H184.295ZM196.433 64.728V55.854H212.345C215.813 55.854 218.363 54.936 219.995 53.1C221.627 51.264 222.443 48.816 222.443 45.756C222.443 42.696 221.627 40.248 219.995 38.412C218.363 36.576 215.813 35.658 212.345 35.658H196.433V24.03H211.019C219.451 24.03 225.843 25.798 230.195 29.334C234.615 32.87 236.825 37.936 236.825 44.532V45.96C236.825 50.584 235.703 54.29 233.459 57.078C231.283 59.798 228.257 61.77 224.381 62.994C220.505 64.15 216.051 64.728 211.019 64.728H196.433ZM277.482 100.938C272.586 100.938 268.268 100.156 264.528 98.592C260.788 97.028 257.626 94.92 255.042 92.268C252.458 89.548 250.486 86.488 249.126 83.088C247.834 79.688 247.188 76.152 247.188 72.48V70.338C247.188 66.53 247.868 62.926 249.228 59.526C250.656 56.058 252.662 52.998 255.246 50.346C257.898 47.626 261.094 45.518 264.834 44.022C268.574 42.458 272.79 41.676 277.482 41.676C282.174 41.676 286.39 42.458 290.13 44.022C293.87 45.518 297.032 47.626 299.616 50.346C302.268 52.998 304.274 56.058 305.634 59.526C306.994 62.926 307.674 66.53 307.674 70.338V72.48C307.674 76.152 306.994 79.688 305.634 83.088C304.342 86.488 302.404 89.548 299.82 92.268C297.236 94.92 294.074 97.028 290.334 98.592C286.594 100.156 282.31 100.938 277.482 100.938ZM277.482 88.8C280.95 88.8 283.874 88.052 286.254 86.556C288.634 84.992 290.436 82.918 291.66 80.334C292.884 77.682 293.496 74.69 293.496 71.358C293.496 67.958 292.85 64.966 291.558 62.382C290.334 59.73 288.498 57.656 286.05 56.16C283.67 54.596 280.814 53.814 277.482 53.814C274.15 53.814 271.26 54.596 268.812 56.16C266.432 57.656 264.596 59.73 263.304 62.382C262.012 64.966 261.366 67.958 261.366 71.358C261.366 74.69 261.978 77.682 263.202 80.334C264.494 82.918 266.33 84.992 268.71 86.556C271.09 88.052 274.014 88.8 277.482 88.8ZM310.43 99L328.484 69.42L328.178 71.766L311.144 43.614H326.546L337.664 63.096H339.194L349.7 43.614H364.184L348.068 71.664L348.374 69.624L367.448 99H352.046L338.888 78.09H337.358L324.914 99H310.43ZM374.579 119.4V43.614H385.799V67.482L384.065 67.38C384.337 61.736 385.493 57.01 387.533 53.202C389.641 49.394 392.429 46.572 395.897 44.736C399.365 42.832 403.241 41.88 407.525 41.88C411.469 41.88 415.005 42.594 418.133 44.022C421.329 45.45 424.049 47.456 426.293 50.04C428.605 52.624 430.373 55.65 431.597 59.118C432.821 62.518 433.433 66.19 433.433 70.134V72.276C433.433 76.288 432.821 80.028 431.597 83.496C430.441 86.896 428.707 89.922 426.395 92.574C424.151 95.158 421.431 97.198 418.235 98.694C415.039 100.122 411.469 100.836 407.525 100.836C403.377 100.836 399.569 99.986 396.101 98.286C392.701 96.518 389.947 93.832 387.839 90.228C385.731 86.556 384.541 81.83 384.269 76.05L388.757 82.884V119.4H374.579ZM403.955 88.902C407.015 88.902 409.667 88.154 411.911 86.658C414.223 85.162 416.025 83.088 417.317 80.436C418.609 77.716 419.255 74.656 419.255 71.256C419.255 67.72 418.609 64.66 417.317 62.076C416.025 59.492 414.223 57.486 411.911 56.058C409.667 54.562 407.015 53.814 403.955 53.814C401.167 53.814 398.583 54.426 396.203 55.65C393.891 56.874 391.987 58.676 390.491 61.056C389.063 63.436 388.349 66.292 388.349 69.624V73.704C388.349 76.9 389.097 79.62 390.593 81.864C392.089 84.108 394.027 85.842 396.407 87.066C398.787 88.29 401.303 88.902 403.955 88.902ZM446.511 99V43.614H460.689V99H446.511ZM438.759 54.222V43.614H460.689V54.222H438.759ZM451.713 36.984C448.925 36.984 446.851 36.27 445.491 34.842C444.199 33.346 443.553 31.51 443.553 29.334C443.553 27.022 444.199 25.152 445.491 23.724C446.851 22.296 448.925 21.582 451.713 21.582C454.501 21.582 456.541 22.296 457.833 23.724C459.125 25.152 459.771 27.022 459.771 29.334C459.771 31.51 459.125 33.346 457.833 34.842C456.541 36.27 454.501 36.984 451.713 36.984ZM475.703 99V24.54H489.881V99H475.703ZM468.767 35.148V24.54H489.881V35.148H468.767ZM530.649 100.938C525.753 100.938 521.435 100.156 517.695 98.592C513.955 97.028 510.793 94.92 508.209 92.268C505.625 89.548 503.653 86.488 502.293 83.088C501.001 79.688 500.355 76.152 500.355 72.48V70.338C500.355 66.53 501.035 62.926 502.395 59.526C503.823 56.058 505.829 52.998 508.413 50.346C511.065 47.626 514.261 45.518 518.001 44.022C521.741 42.458 525.957 41.676 530.649 41.676C535.341 41.676 539.557 42.458 543.297 44.022C547.037 45.518 550.199 47.626 552.783 50.346C555.435 52.998 557.441 56.058 558.801 59.526C560.161 62.926 560.841 66.53 560.841 70.338V72.48C560.841 76.152 560.161 79.688 558.801 83.088C557.509 86.488 555.571 89.548 552.987 92.268C550.403 94.92 547.241 97.028 543.501 98.592C539.761 100.156 535.477 100.938 530.649 100.938ZM530.649 88.8C534.117 88.8 537.041 88.052 539.421 86.556C541.801 84.992 543.603 82.918 544.827 80.334C546.051 77.682 546.663 74.69 546.663 71.358C546.663 67.958 546.017 64.966 544.725 62.382C543.501 59.73 541.665 57.656 539.217 56.16C536.837 54.596 533.981 53.814 530.649 53.814C527.317 53.814 524.427 54.596 521.979 56.16C519.599 57.656 517.763 59.73 516.471 62.382C515.179 64.966 514.533 67.958 514.533 71.358C514.533 74.69 515.145 77.682 516.369 80.334C517.661 82.918 519.497 84.992 521.877 86.556C524.257 88.052 527.181 88.8 530.649 88.8ZM595.288 99.714C590.188 99.714 585.972 99.068 582.64 97.776C579.376 96.416 576.928 94.172 575.296 91.044C573.664 87.848 572.848 83.564 572.848 78.192L572.95 28.008H586.21L586.108 79.11C586.108 81.83 586.822 83.938 588.25 85.434C589.746 86.862 591.854 87.576 594.574 87.576H603.244V99.714H595.288ZM564.076 54.018V43.614H603.244V54.018H564.076ZM637.591 100.938C632.831 100.938 628.649 100.122 625.045 98.49C621.509 96.858 618.551 94.682 616.171 91.962C613.859 89.174 612.091 86.08 610.867 82.68C609.711 79.28 609.133 75.812 609.133 72.276V70.338C609.133 66.666 609.711 63.13 610.867 59.73C612.091 56.262 613.859 53.202 616.171 50.55C618.551 47.83 621.475 45.688 624.943 44.124C628.411 42.492 632.423 41.676 636.979 41.676C642.963 41.676 647.961 43.002 651.973 45.654C656.053 48.238 659.113 51.672 661.153 55.956C663.193 60.172 664.213 64.728 664.213 69.624V74.724H615.151V66.054H655.339L650.953 70.338C650.953 66.802 650.443 63.776 649.423 61.26C648.403 58.744 646.839 56.806 644.731 55.446C642.691 54.086 640.107 53.406 636.979 53.406C633.851 53.406 631.199 54.12 629.023 55.548C626.847 56.976 625.181 59.05 624.025 61.77C622.937 64.422 622.393 67.618 622.393 71.358C622.393 74.826 622.937 77.92 624.025 80.64C625.113 83.292 626.779 85.4 629.023 86.964C631.267 88.46 634.123 89.208 637.591 89.208C641.059 89.208 643.881 88.528 646.057 87.168C648.233 85.74 649.627 84.006 650.239 81.966H663.295C662.479 85.774 660.915 89.106 658.603 91.962C656.291 94.818 653.333 97.028 649.729 98.592C646.193 100.156 642.147 100.938 637.591 100.938Z" fill="#161906"/>
<path d="M185.636 161V136.15H189.399V158.018H200.688V161H185.636ZM213.206 161.426C210.745 161.426 208.591 160.882 206.745 159.793C204.899 158.704 203.456 157.201 202.414 155.284C201.373 153.344 200.852 151.107 200.852 148.575C200.852 146.043 201.373 143.818 202.414 141.901C203.456 139.96 204.899 138.446 206.745 137.357C208.591 136.268 210.745 135.724 213.206 135.724C215.668 135.724 217.821 136.268 219.667 137.357C221.513 138.446 222.945 139.96 223.963 141.901C225.004 143.818 225.525 146.043 225.525 148.575C225.525 151.107 225.004 153.344 223.963 155.284C222.945 157.201 221.513 158.704 219.667 159.793C217.821 160.882 215.668 161.426 213.206 161.426ZM213.206 158.053C214.91 158.053 216.39 157.675 217.644 156.917C218.922 156.16 219.916 155.071 220.626 153.651C221.336 152.231 221.691 150.539 221.691 148.575C221.691 146.611 221.336 144.918 220.626 143.498C219.916 142.078 218.922 140.99 217.644 140.232C216.39 139.475 214.91 139.096 213.206 139.096C211.502 139.096 210.011 139.475 208.733 140.232C207.455 140.99 206.461 142.078 205.751 143.498C205.065 144.918 204.722 146.611 204.722 148.575C204.722 150.539 205.065 152.231 205.751 153.651C206.461 155.071 207.455 156.16 208.733 156.917C210.011 157.675 211.502 158.053 213.206 158.053ZM239.799 161.426C237.456 161.426 235.409 160.894 233.657 159.829C231.906 158.763 230.545 157.272 229.575 155.355C228.605 153.438 228.119 151.202 228.119 148.646C228.119 146.114 228.616 143.877 229.61 141.936C230.604 139.996 232.013 138.481 233.835 137.392C235.681 136.28 237.858 135.724 240.367 135.724C243.207 135.724 245.574 136.41 247.467 137.783C249.36 139.156 250.591 141.049 251.159 143.463H246.899C246.52 142.138 245.775 141.096 244.662 140.339C243.55 139.582 242.118 139.203 240.367 139.203C237.764 139.203 235.716 140.043 234.225 141.723C232.734 143.404 231.989 145.723 231.989 148.681C231.989 151.64 232.723 153.947 234.19 155.604C235.657 157.261 237.61 158.089 240.047 158.089C242.509 158.089 244.355 157.391 245.585 155.994C246.84 154.598 247.573 152.74 247.786 150.421H241.041V147.51H251.585V161H248.141L247.822 157.343C246.994 158.645 245.952 159.651 244.698 160.361C243.444 161.071 241.811 161.426 239.799 161.426ZM255.442 161V136.15H259.205V161H255.442ZM274.614 161.426C272.152 161.426 270.022 160.894 268.224 159.829C266.449 158.74 265.076 157.237 264.106 155.32C263.135 153.379 262.65 151.143 262.65 148.61C262.65 146.054 263.135 143.818 264.106 141.901C265.076 139.96 266.449 138.446 268.224 137.357C270.022 136.268 272.152 135.724 274.614 135.724C277.525 135.724 279.903 136.434 281.749 137.854C283.595 139.274 284.767 141.262 285.264 143.818H281.075C280.743 142.374 280.033 141.226 278.945 140.374C277.856 139.522 276.401 139.096 274.578 139.096C272.093 139.096 270.129 139.948 268.685 141.652C267.242 143.333 266.52 145.652 266.52 148.61C266.52 151.545 267.242 153.853 268.685 155.533C270.129 157.213 272.093 158.053 274.578 158.053C276.401 158.053 277.856 157.651 278.945 156.846C280.033 156.042 280.743 154.941 281.075 153.545H285.264C284.767 156.006 283.595 157.935 281.749 159.331C279.903 160.728 277.525 161.426 274.614 161.426ZM288.69 161V136.15H292.453V161H288.69ZM296.786 161V136.15H312.583V139.203H300.549V146.942H311.518V149.924H300.549V157.947H312.583V161H296.786ZM316.356 161V136.15H320.119V158.018H331.408V161H316.356ZM342.983 161V136.15H351.041C353.952 136.15 356.343 136.659 358.212 137.676C360.106 138.694 361.502 140.138 362.401 142.007C363.324 143.853 363.786 146.054 363.786 148.61C363.786 151.143 363.324 153.344 362.401 155.213C361.502 157.059 360.106 158.491 358.212 159.509C356.343 160.503 353.952 161 351.041 161H342.983ZM346.746 157.805H350.899C353.148 157.805 354.923 157.438 356.224 156.704C357.55 155.971 358.496 154.918 359.064 153.545C359.656 152.172 359.952 150.527 359.952 148.61C359.952 146.693 359.656 145.037 359.064 143.64C358.496 142.244 357.55 141.179 356.224 140.445C354.923 139.688 353.148 139.309 350.899 139.309H346.746V157.805ZM367.234 161V136.15H383.031V139.203H370.997V146.942H381.966V149.924H370.997V157.947H383.031V161H367.234ZM403.239 161.426C401.417 161.426 399.819 161.106 398.447 160.467C397.074 159.828 395.997 158.917 395.216 157.734C394.459 156.551 394.068 155.142 394.045 153.509H398.021C398.044 154.835 398.506 155.959 399.405 156.882C400.305 157.805 401.571 158.266 403.204 158.266C404.647 158.266 405.772 157.923 406.576 157.237C407.405 156.527 407.819 155.628 407.819 154.539C407.819 153.663 407.618 152.953 407.215 152.409C406.837 151.865 406.304 151.415 405.618 151.06C404.955 150.705 404.186 150.385 403.31 150.101C402.435 149.817 401.512 149.51 400.541 149.178C398.624 148.539 397.181 147.711 396.21 146.693C395.264 145.676 394.79 144.339 394.79 142.682C394.767 141.286 395.086 140.067 395.749 139.025C396.435 137.984 397.382 137.179 398.589 136.611C399.819 136.02 401.251 135.724 402.884 135.724C404.494 135.724 405.902 136.02 407.109 136.611C408.339 137.203 409.298 138.031 409.984 139.096C410.671 140.138 411.026 141.357 411.049 142.753H407.073C407.073 142.114 406.908 141.51 406.576 140.943C406.245 140.351 405.76 139.866 405.121 139.487C404.482 139.108 403.701 138.919 402.778 138.919C401.594 138.895 400.612 139.191 399.831 139.806C399.074 140.422 398.695 141.274 398.695 142.362C398.695 143.333 398.979 144.078 399.547 144.599C400.115 145.12 400.896 145.557 401.89 145.912C402.884 146.244 404.02 146.634 405.298 147.084C406.529 147.486 407.629 147.971 408.6 148.539C409.57 149.107 410.339 149.853 410.907 150.776C411.499 151.699 411.795 152.87 411.795 154.29C411.795 155.545 411.475 156.716 410.836 157.805C410.197 158.87 409.239 159.746 407.961 160.432C406.683 161.095 405.109 161.426 403.239 161.426ZM415.199 161V136.15H430.996V139.203H418.962V146.942H429.931V149.924H418.962V157.947H430.996V161H415.199ZM434.77 161V136.15H438.533V158.018H449.822V161H434.77ZM453.162 161V136.15H468.746V139.203H456.925V147.048H466.723V150.066H456.925V161H453.162ZM488.162 161.426C486.34 161.426 484.742 161.106 483.369 160.467C481.997 159.828 480.92 158.917 480.139 157.734C479.382 156.551 478.991 155.142 478.967 153.509H482.943C482.967 154.835 483.429 155.959 484.328 156.882C485.227 157.805 486.493 158.266 488.126 158.266C489.57 158.266 490.694 157.923 491.499 157.237C492.327 156.527 492.741 155.628 492.741 154.539C492.741 153.663 492.54 152.953 492.138 152.409C491.759 151.865 491.227 151.415 490.54 151.06C489.878 150.705 489.109 150.385 488.233 150.101C487.357 149.817 486.434 149.51 485.464 149.178C483.547 148.539 482.103 147.711 481.133 146.693C480.186 145.676 479.713 144.339 479.713 142.682C479.689 141.286 480.009 140.067 480.671 139.025C481.358 137.984 482.304 137.179 483.511 136.611C484.742 136.02 486.174 135.724 487.807 135.724C489.416 135.724 490.824 136.02 492.031 136.611C493.262 137.203 494.221 138.031 494.907 139.096C495.593 140.138 495.948 141.357 495.972 142.753H491.996C491.996 142.114 491.83 141.51 491.499 140.943C491.168 140.351 490.682 139.866 490.043 139.487C489.404 139.108 488.623 138.919 487.7 138.919C486.517 138.895 485.535 139.191 484.754 139.806C483.997 140.422 483.618 141.274 483.618 142.362C483.618 143.333 483.902 144.078 484.47 144.599C485.038 145.12 485.819 145.557 486.813 145.912C487.807 146.244 488.943 146.634 490.221 147.084C491.452 147.486 492.552 147.971 493.522 148.539C494.493 149.107 495.262 149.853 495.83 150.776C496.422 151.699 496.717 152.87 496.717 154.29C496.717 155.545 496.398 156.716 495.759 157.805C495.12 158.87 494.161 159.746 492.883 160.432C491.605 161.095 490.032 161.426 488.162 161.426ZM505.493 161V139.203H498.144V136.15H516.569V139.203H509.256V161H505.493ZM529.737 161.426C527.276 161.426 525.122 160.882 523.276 159.793C521.43 158.704 519.987 157.201 518.945 155.284C517.904 153.344 517.383 151.107 517.383 148.575C517.383 146.043 517.904 143.818 518.945 141.901C519.987 139.96 521.43 138.446 523.276 137.357C525.122 136.268 527.276 135.724 529.737 135.724C532.199 135.724 534.352 136.268 536.198 137.357C538.044 138.446 539.476 139.96 540.494 141.901C541.535 143.818 542.056 146.043 542.056 148.575C542.056 151.107 541.535 153.344 540.494 155.284C539.476 157.201 538.044 158.704 536.198 159.793C534.352 160.882 532.199 161.426 529.737 161.426ZM529.737 158.053C531.441 158.053 532.921 157.675 534.175 156.917C535.453 156.16 536.447 155.071 537.157 153.651C537.867 152.231 538.222 150.539 538.222 148.575C538.222 146.611 537.867 144.918 537.157 143.498C536.447 142.078 535.453 140.99 534.175 140.232C532.921 139.475 531.441 139.096 529.737 139.096C528.033 139.096 526.542 139.475 525.264 140.232C523.986 140.99 522.992 142.078 522.282 143.498C521.596 144.918 521.253 146.611 521.253 148.575C521.253 150.539 521.596 152.231 522.282 153.651C522.992 155.071 523.986 156.16 525.264 156.917C526.542 157.675 528.033 158.053 529.737 158.053ZM556.614 161.426C554.153 161.426 552.023 160.894 550.224 159.829C548.449 158.74 547.076 157.237 546.106 155.32C545.136 153.379 544.651 151.143 544.651 148.61C544.651 146.054 545.136 143.818 546.106 141.901C547.076 139.96 548.449 138.446 550.224 137.357C552.023 136.268 554.153 135.724 556.614 135.724C559.525 135.724 561.904 136.434 563.75 137.854C565.596 139.274 566.767 141.262 567.264 143.818H563.075C562.744 142.374 562.034 141.226 560.945 140.374C559.856 139.522 558.401 139.096 556.579 139.096C554.094 139.096 552.129 139.948 550.686 141.652C549.242 143.333 548.52 145.652 548.52 148.61C548.52 151.545 549.242 153.853 550.686 155.533C552.129 157.213 554.094 158.053 556.579 158.053C558.401 158.053 559.856 157.651 560.945 156.846C562.034 156.042 562.744 154.941 563.075 153.545H567.264C566.767 156.006 565.596 157.935 563.75 159.331C561.904 160.728 559.525 161.426 556.614 161.426ZM570.69 161V136.15H574.453V146.8L584.251 136.15H588.902L579.707 146.054L589.115 161H584.535L577.009 148.93L574.453 151.699V161H570.69ZM590.085 161L599.244 136.15H603.362L612.45 161H608.474L606.344 154.929H596.191L594.061 161H590.085ZM597.256 151.947H605.279L601.267 140.623L597.256 151.947ZM624.576 161.426C622.233 161.426 620.186 160.894 618.435 159.829C616.683 158.763 615.322 157.272 614.352 155.355C613.382 153.438 612.897 151.202 612.897 148.646C612.897 146.114 613.394 143.877 614.388 141.936C615.382 139.996 616.79 138.481 618.612 137.392C620.458 136.28 622.635 135.724 625.144 135.724C627.984 135.724 630.351 136.41 632.244 137.783C634.137 139.156 635.368 141.049 635.936 143.463H631.676C631.297 142.138 630.552 141.096 629.44 140.339C628.327 139.582 626.895 139.203 625.144 139.203C622.541 139.203 620.494 140.043 619.003 141.723C617.512 143.404 616.766 145.723 616.766 148.681C616.766 151.64 617.5 153.947 618.967 155.604C620.434 157.261 622.387 158.089 624.825 158.089C627.286 158.089 629.132 157.391 630.363 155.994C631.617 154.598 632.351 152.74 632.564 150.421H625.819V147.51H636.362V161H632.919L632.599 157.343C631.771 158.645 630.729 159.651 629.475 160.361C628.221 161.071 626.588 161.426 624.576 161.426ZM640.219 161V136.15H656.017V139.203H643.982V146.942H654.952V149.924H643.982V157.947H656.017V161H640.219Z" fill="#161906"/>
</svg>
